# xmcd
#
# Track frame offsets: 
#        150
#        11067
#        26493
#        43649
#        56702
#        71192
#        83914
#        94099
#        109881
#        129033
#        143020
#        155625
#        165963
#        178928
#
# Disc length: 2537 seconds
#
# Revision: 0
# Processed by: cddbd v1.5.2PL0 Copyright (c) Steve Scherf et al.
# Submitted via: ExactAudioCopy v0.99pb3
#
DISCID=b709e70e
DTITLE=Michael Shull - Appalachain Sunday
DYEAR=2004
DGENRE=Gospel
TTITLE0=When The Roll Is Called Up Yonder
TTITLE1=Never Grow Old
TTITLE2=Life's Railway to Heaven
TTITLE3=Unclouded Day
TTITLE4=Wayfaring Stranger
TTITLE5=Kneel At The Cross
TTITLE6=Keep On The Sunny Side
TTITLE7=Over In The Gloryland
TTITLE8=Angel Band
TTITLE9=Give Me The Roses
TTITLE10=Precious Lord
TTITLE11=Where The Soul Never Dies
TTITLE12=Old Time Religion/Little Brown Church
TTITLE13=Will The Circle Be Unbroken
EXTD=
EXTT0=
EXTT1=
EXTT2=
EXTT3=
EXTT4=
EXTT5=
EXTT6=
EXTT7=
EXTT8=
EXTT9=
EXTT10=
EXTT11=
EXTT12=
EXTT13=
PLAYORDER=
